HIERARCHY
ROOT Hips
{
	OFFSET 38.501099 -3.026736 98.751198
	CHANNELS 6 Xposition Yposition Zposition Xrotation Yrotation Zrotation
	JOINT spine
	{
		OFFSET 0.000000 -0.477352 8.301033
		CHANNELS 3 Xrotation Yrotation Zrotation
		JOINT spine1
		{
			OFFSET 0.000000 -0.000002 10.456497
			CHANNELS 3 Xrotation Yrotation Zrotation
			JOINT spine2
			{
				OFFSET 0.000000 -0.000002 10.019203
				CHANNELS 3 Xrotation Yrotation Zrotation
				JOINT Neck
				{
					OFFSET 0.000000 -1.226414 25.723503
					CHANNELS 3 Xrotation Yrotation Zrotation
					JOINT Head
					{
						OFFSET 0.000000 -0.000001 7.771744
						CHANNELS 3 Xrotation Yrotation Zrotation
						End Site
						{
							OFFSET 0.000000 6.203937 18.811996
						}
					}
				}
				JOINT RightShoulder
				{
					OFFSET -4.218800 0.587437 10.820000
					CHANNELS 3 Xrotation Yrotation Zrotation
					JOINT RightArm
					{
						OFFSET 0.000000 -0.000002 14.191406
						CHANNELS 3 Xrotation Yrotation Zrotation
						JOINT RightArmRoll
						{
							OFFSET 0.000000 -0.000001 7.164078
							CHANNELS 3 Xrotation Yrotation Zrotation
							JOINT RightForeArm
							{
								OFFSET 0.000000 -0.000003 20.866501
								CHANNELS 3 Xrotation Yrotation Zrotation
								JOINT RightForeArmRoll
								{
									OFFSET 0.000000 -0.000001 8.039215
									CHANNELS 3 Xrotation Yrotation Zrotation
									JOINT RightHand
									{
										OFFSET 0.000000 -0.000003 16.132996
										CHANNELS 3 Xrotation Yrotation Zrotation
										End Site
										{
											OFFSET 0.000000 0.000000 0.100006
										}
									}
								}
							}
						}
					}
				}
				JOINT LeftShoulder
				{
					OFFSET 4.218800 0.587437 10.820000
					CHANNELS 3 Xrotation Yrotation Zrotation
					JOINT LeftArm
					{
						OFFSET 0.000000 -0.000002 14.191406
						CHANNELS 3 Xrotation Yrotation Zrotation
						JOINT LeftArmRoll
						{
							OFFSET 0.000000 -0.000001 7.164093
							CHANNELS 3 Xrotation Yrotation Zrotation
							JOINT LeftForeArm
							{
								OFFSET 0.000000 -0.000003 20.866501
								CHANNELS 3 Xrotation Yrotation Zrotation
								JOINT LeftForeArmRoll
								{
									OFFSET 0.000000 -0.000001 8.039215
									CHANNELS 3 Xrotation Yrotation Zrotation
									JOINT LeftHand
									{
										OFFSET 0.000000 -0.000003 16.132996
										CHANNELS 3 Xrotation Yrotation Zrotation
										End Site
										{
											OFFSET 0.000000 0.000000 0.100006
										}
									}
								}
							}
						}
					}
				}
			}
		}
	}
	JOINT RightUpLeg
	{
		OFFSET -7.357731 1.131810 -1.349213
		CHANNELS 3 Xrotation Yrotation Zrotation
		JOINT RightUpLegRoll
		{
			OFFSET 0.000000 -0.000003 18.916801
			CHANNELS 3 Xrotation Yrotation Zrotation
			JOINT RightLeg
			{
				OFFSET 0.000000 0.000004 -23.425598
				CHANNELS 3 Xrotation Yrotation Zrotation
				JOINT RightLegRoll
				{
					OFFSET 0.000000 -0.000004 23.502304
					CHANNELS 3 Xrotation Yrotation Zrotation
					JOINT RightFoot
					{
						OFFSET 0.000000 -0.000003 19.561707
						CHANNELS 3 Xrotation Yrotation Zrotation
						JOINT RightToeBase
						{
							OFFSET 0.000000 -0.000003 16.352600
							CHANNELS 3 Xrotation Yrotation Zrotation
							End Site
							{
								OFFSET 0.006931 0.912836 7.919434
							}
						}
					}
				}
			}
		}
	}
	JOINT LeftUpLeg
	{
		OFFSET 7.357731 1.131810 -1.349213
		CHANNELS 3 Xrotation Yrotation Zrotation
		JOINT LeftUpLegRoll
		{
			OFFSET 0.000000 -0.000003 18.916901
			CHANNELS 3 Xrotation Yrotation Zrotation
			JOINT LeftLeg
			{
				OFFSET 0.000000 -0.000004 23.425499
				CHANNELS 3 Xrotation Yrotation Zrotation
				JOINT LeftLegRoll
				{
					OFFSET 0.000000 -0.000004 23.719498
					CHANNELS 3 Xrotation Yrotation Zrotation
					JOINT LeftFoot
					{
						OFFSET 0.000000 -0.000003 19.344406
						CHANNELS 3 Xrotation Yrotation Zrotation
						JOINT LeftToeBase
						{
							OFFSET 0.000000 -0.000003 16.352600
							CHANNELS 3 Xrotation Yrotation Zrotation
							End Site
							{
								OFFSET -0.031063 0.912836 7.919434
							}
						}
					}
				}
			}
		}
	}
}
MOTION
Frames: 10
Frame Time: 0.041667
38.358101 -3.424953 98.781891 -4.959102 -0.655139 0.867796 -1.339853 0.091102 0.168845 1.322637 0.182003 0.328317 2.967697 0.185898 0.326058 24.714794 -1.537273 -1.171874 -7.566123 0.629528 -1.279933 -4.554074 -73.706573 -6.691135 -65.461995 -127.609340 -108.341294 -0.000013 0.000019 0.000002 89.046795 -6.341547 0.033791 0.000004 0.000000 -3.000210 -5.000189 -7.998712 0.000157 10.553501 65.158707 -11.127124 -60.361230 125.712063 85.231895 -0.000003 0.000008 0.000002 80.646284 2.986535 1.197179 0.000002 -0.000002 3.010550 -5.000261 7.998776 -0.000169 2.681365 -175.950427 1.654034 179.999991 -0.000005 -1.129995 174.303340 -3.998225 -0.664515 0.000001 -0.000004 0.061172 68.423674 6.888930 2.167086 25.456957 -7.355616 0.000010 2.412382 175.722790 0.407762 -0.000004 -0.000005 -1.228330 -10.672942 3.152430 1.046670 -0.000005 -0.000001 -0.146851 68.942884 -6.926170 -2.048079 25.456962 7.355614 0.000000 
38.344799 -3.437134 98.779297 -4.963524 -0.654834 0.885953 -1.338042 0.090458 0.168642 1.326337 0.180319 0.329061 2.971386 0.184214 0.326819 24.712379 -1.519886 -1.189640 -7.566933 0.579593 -1.294738 -4.517601 -73.729413 -6.653310 -65.545972 -127.615050 -108.270991 -0.000010 0.000018 0.000000 89.136311 -6.314442 -0.037644 0.000006 0.000000 -3.000209 -5.000190 -7.998712 0.000157 10.664827 65.200009 -11.244759 -60.445856 125.656329 85.231431 -0.000002 0.000008 0.000001 80.708992 2.967663 1.223999 0.000002 -0.000000 3.010550 -5.000263 7.998776 -0.000169 2.687187 -175.951438 1.656679 179.999991 -0.000005 -1.129996 174.303818 -4.002212 -0.663880 0.000001 -0.000004 0.061186 68.423988 6.888916 2.167164 25.456953 -7.355615 0.000010 2.431421 175.717859 0.395468 -0.000005 -0.000005 -1.228340 -10.641892 3.162087 1.045539 -0.000005 -0.000001 -0.146215 68.917763 -6.926160 -2.049650 25.456962 7.355613 0.000000 
38.345901 -3.429172 98.782303 -4.967504 -0.654171 0.904589 -1.336303 0.089839 0.168454 1.329886 0.178682 0.329785 2.974945 0.182578 0.327560 24.709540 -1.508327 -1.206507 -7.568300 0.536611 -1.309244 -4.492408 -73.750696 -6.627639 -65.628740 -127.607878 -108.200927 -0.000012 0.000020 0.000004 89.235937 -6.276749 -0.120592 0.000005 -0.000003 -3.000212 -5.000191 -7.998714 0.000156 10.773876 65.237773 -11.360402 -60.531493 125.604269 85.221602 -0.000002 0.000006 0.000001 80.765607 2.950137 1.249306 0.000001 -0.000002 3.010550 -5.000262 7.998776 -0.000168 2.692813 -175.953459 1.658942 179.999991 -0.000005 -1.129995 174.304542 -4.006186 -0.664225 0.000001 -0.000004 0.061200 68.424412 6.888949 2.167144 25.456959 -7.355615 0.000010 2.447041 175.712900 0.384421 -0.000004 -0.000005 -1.228350 -10.615336 3.170294 1.044567 -0.000005 -0.000001 -0.145654 68.895702 -6.926134 -2.050925 25.456962 7.355613 0.000001 
38.351299 -3.410054 98.778297 -4.970986 -0.653130 0.923665 -1.334635 0.089267 0.168280 1.333267 0.177134 0.330463 2.978325 0.181031 0.328255 24.706181 -1.503579 -1.222308 -7.570500 0.501645 -1.323380 -4.480565 -73.770100 -6.616318 -65.710682 -127.586472 -108.134694 -0.000014 0.000020 0.000001 89.344646 -6.228251 -0.214656 0.000004 -0.000001 -3.000209 -5.000189 -7.998714 0.000159 10.880242 65.271528 -11.473722 -60.615040 125.557892 85.199390 -0.000003 0.000007 0.000002 80.814785 2.934288 1.272759 0.000002 -0.000000 3.010550 -5.000265 7.998769 -0.000169 2.698216 -175.956465 1.660783 179.999991 -0.000005 -1.129996 174.305444 -4.010175 -0.664558 0.000001 -0.000004 0.061214 68.424931 6.888913 2.167204 25.456955 -7.355617 0.000011 2.458458 175.707928 0.375014 -0.000005 -0.000005 -1.228350 -10.594468 3.176654 1.043803 -0.000006 -0.000001 -0.145188 68.877438 -6.926140 -2.051971 25.456959 7.355614 0.000000 
38.350498 -3.412185 98.794891 -4.973921 -0.651688 0.943135 -1.333063 0.088759 0.168118 1.336456 0.175718 0.331068 2.981505 0.179617 0.328878 24.702317 -1.506570 -1.236865 -7.573861 0.475762 -1.337071 -4.484065 -73.786957 -6.621477 -65.789707 -127.550135 -108.072656 -0.000011 0.000018 0.000002 89.461463 -6.168625 -0.319219 0.000005 -0.000002 -3.000210 -5.000191 -7.998714 0.000158 10.983434 65.300597 -11.584285 -60.696107 125.518414 85.165123 -0.000002 0.000008 0.000001 80.855622 2.920309 1.293686 0.000001 -0.000001 3.010550 -5.000260 7.998777 -0.000166 2.703381 -175.959497 1.662216 179.999991 -0.000005 -1.129995 174.306578 -4.014166 -0.663863 0.000001 -0.000004 0.061228 68.425566 6.888923 2.167166 25.456955 -7.355615 0.000010 2.464907 175.701958 0.367599 -0.000005 -0.000004 -1.228360 -10.580489 3.180751 1.043292 -0.000004 -0.000001 -0.144842 68.863818 -6.926127 -2.052821 25.456962 7.355613 0.000001 
38.348701 -3.412243 98.788490 -4.976289 -0.649824 0.962960 -1.331582 0.088334 0.167969 1.339416 0.174474 0.331577 2.984475 0.178375 0.329402 24.697956 -1.518263 -1.249990 -7.578650 0.460026 -1.350235 -4.504977 -73.800768 -6.645319 -65.863596 -127.497994 -108.015002 -0.000012 0.000017 -0.000001 89.585314 -6.097770 -0.434189 0.000003 -0.000001 -3.000210 -5.000189 -7.998710 0.000157 11.083032 65.324401 -11.691733 -60.775303 125.486394 85.120536 -0.000001 0.000006 0.000001 80.886829 2.908458 1.311937 0.000001 -0.000003 3.010550 -5.000263 7.998771 -0.000167 2.708282 -175.963500 1.663152 179.999991 -0.000005 -1.129995 174.307985 -4.018158 -0.664162 0.000001 -0.000004 0.061243 68.426304 6.888902 2.167219 25.456959 -7.355616 0.000011 2.465586 175.696972 0.362654 -0.000004 -0.000005 -1.228370 -10.574494 3.182189 1.043079 -0.000007 -0.000001 -0.144637 68.855704 -6.926145 -2.053333 25.456959 7.355613 0.000001 
38.344501 -3.406053 98.781601 -4.978318 -0.647278 0.983948 -1.330083 0.087931 0.167858 1.342446 0.173263 0.332095 2.987494 0.177167 0.329940 24.691907 -1.539155 -1.262183 -7.584343 0.454425 -1.363364 -4.543872 -73.813376 -6.688604 -65.934992 -127.424282 -107.956283 -0.000011 0.000021 0.000002 89.725989 -6.010479 -0.568483 0.000004 0.000006 -3.000210 -5.000190 -7.998710 0.000156 11.180593 65.343252 -11.797748 -60.850558 125.461655 85.058996 -0.000001 0.000007 -0.000002 80.909123 2.898585 1.327785 -0.000000 -0.000002 3.010552 -5.000264 7.998771 -0.000167 2.713317 -175.967502 1.663709 179.999991 -0.000005 -1.129995 174.309720 -4.022154 -0.664436 0.000001 -0.000004 0.061257 68.427041 6.888921 2.167273 25.456953 -7.355615 0.000010 2.460361 175.689964 0.359805 -0.000004 -0.000004 -1.228380 -10.576784 3.180936 1.043184 -0.000006 -0.000001 -0.144569 68.852951 -6.926128 -2.053502 25.456959 7.355613 0.000000 
38.330200 -3.415051 98.786301 -4.980246 -0.643886 1.006752 -1.328451 0.087481 0.167802 1.345766 0.171935 0.332736 2.990824 0.175843 0.330602 24.683370 -1.568477 -1.274041 -7.590184 0.457723 -1.376947 -4.598851 -73.826640 -6.749406 -66.008471 -127.325190 -107.892885 -0.000011 0.000017 0.000000 89.891990 -5.903917 -0.729572 0.000007 0.000000 -3.000206 -5.000190 -7.998712 0.000157 11.277692 65.357916 -11.903916 -60.923074 125.442230 84.977723 -0.000001 0.000008 0.000000 80.924129 2.890258 1.342341 0.000003 -0.000003 3.010550 -5.000264 7.998772 -0.000169 2.718817 -175.972516 1.663898 179.999991 -0.000005 -1.129995 174.311905 -4.026138 -0.664677 0.000001 -0.000004 0.061271 68.427991 6.888917 2.167315 25.456959 -7.355617 0.000010 2.450087 175.682929 0.358497 -0.000005 -0.000004 -1.228400 -10.586262 3.177417 1.043568 -0.000006 -0.000001 -0.144608 68.854427 -6.926106 -2.053405 25.456960 7.355614 0.000000 
38.334599 -3.409803 98.789597 -4.981998 -0.639767 1.031081 -1.326741 0.086995 0.167794 1.349296 0.170513 0.333473 2.994355 0.174429 0.331365 24.672834 -1.605345 -1.285473 -7.596188 0.469144 -1.390825 -4.668216 -73.839987 -6.825850 -66.081466 -127.204432 -107.822725 -0.000012 0.000020 0.000003 90.080612 -5.780738 -0.914335 0.000006 -0.000000 -3.000210 -5.000188 -7.998709 0.000156 11.373995 65.368947 -12.009802 -60.992449 125.427763 84.877484 0.000000 0.000008 0.000001 80.932544 2.883304 1.355475 0.000003 -0.000000 3.010550 -5.000262 7.998774 -0.000168 2.724631 -175.978540 1.663732 179.999991 -0.000005 -1.129995 174.314405 -4.030139 -0.663899 0.000001 -0.000004 0.061285 68.429043 6.888921 2.167250 25.456957 -7.355617 0.000010 2.435360 175.674897 0.358504 -0.000004 -0.000004 -1.228410 -10.602033 3.171946 1.044196 -0.000005 -0.000001 -0.144740 68.859583 -6.926093 -2.053178 25.456967 7.355613 0.000001 
38.342701 -3.398613 98.786697 -4.983529 -0.635039 1.056626 -1.324982 0.086483 0.167824 1.352936 0.169023 0.334283 2.997994 0.172950 0.332201 24.660697 -1.648868 -1.296445 -7.602348 0.487911 -1.404849 -4.750356 -73.853306 -6.916183 -66.155204 -127.064755 -107.748966 -0.000011 0.000016 0.000001 90.289029 -5.643718 -1.120256 0.000008 0.000000 -3.000212 -5.000188 -7.998713 0.000155 11.469043 65.376563 -12.114847 -61.060600 125.416890 84.761527 -0.000003 0.000007 -0.000001 80.934846 2.877646 1.367370 0.000001 -0.000001 3.010550 -5.000259 7.998776 -0.000167 2.730603 -175.985548 1.663228 179.999991 -0.000005 -1.129995 174.317233 -4.035134 -0.664195 0.000001 -0.000004 0.061299 68.430197 6.888933 2.167280 25.456957 -7.355617 0.000010 2.416812 175.666851 0.359682 -0.000004 -0.000004 -1.228430 -10.623091 3.164837 1.045027 -0.000006 -0.000001 -0.144950 68.867923 -6.926083 -2.052657 25.456965 7.355615 0.000001 
